<svg xmlns="http://www.w3.org/2000/svg" viewBox="0 0 456.77 468.81"><defs><style>.cls-1{fill:#a87b50;}.cls-2{fill:#bbbdbf;}.cls-3,.cls-5{fill:#8bc543;}.cls-3{stroke:#006738;stroke-miterlimit:10;stroke-width:9.57px;}.cls-4{fill:#006738;}.cls-6{fill:#221f1f;opacity:0.3;}.cls-7{fill:#e6e6e7;}.cls-8{fill:#e2a540;}.cls-9{fill:#744c29;}.cls-10{fill:#d0d2d3;}.cls-11{fill:#f7f7f7;}.cls-12{fill:#e8af2e;}.cls-13{fill:#f9ca35;}.cls-14{fill:#c38728;}.cls-15{fill:#fff;}</style></defs><g id="Layer_2" data-name="Layer 2"><g id="Capa_1" data-name="Capa 1"><rect class="cls-1" width="456.77" height="468.81"/><path class="cls-2" d="M180.82,207.22,137.47,151.5s1-10.11,29-9.13,68.52-6.59,94.72-7.19c30.3-.69,60.36,5,60.36,5l-45.31,67Z"/><path class="cls-3" d="M320.76,69.85c-27.35,47.06-54,94.68-68.88,145-24.27-7.19-48.51-14.38-73-21.6,12.57-50.85,16.41-102.34,27.25-156.41C246.19,43.2,283.73,54.48,320.76,69.85Z"/><path class="cls-4" d="M247.59,98.25c21.71,6.22,32.74,24.75,25.3,40.16s-26.57,24.06-43.82,19.08-29.35-22.35-26.75-39S225.86,92.16,247.59,98.25Z"/><path class="cls-4" d="M178.9,193.26,198.37,199c3.06-10.7-3.6-22-15-25.24C182.07,180.29,180.58,186.79,178.9,193.26Z"/><path class="cls-5" d="M230.37,119.12c-2.78-.55-4.71,1.19-5.75,5.18s-.34,6.36,2.13,7a3.59,3.59,0,0,0,3.82-1,40.09,40.09,0,0,0,4.64-7.1c2-3.64,4.43-6.09,7.16-7.3a13.25,13.25,0,0,1,9.3-.32c4,1.19,6.6,3.57,7.63,7.07a16,16,0,0,1-.64,10.76c-3.49,8.85-9.27,12.72-17.41,11.73l1.77-7.64c4.35.66,7.36-1.36,9.11-6.09,1.64-4.44.63-7.22-3.06-8.3a4.57,4.57,0,0,0-4.19.58c-1.15.86-2.88,3.18-5.07,6.94s-4.49,6.27-6.86,7.54a10,10,0,0,1-7.64.75,10.48,10.48,0,0,1-6.64-5.56c-1.5-2.89-1.76-6.55-.7-11,2.06-8.83,6.88-12.57,14.23-11C231.58,113.94,231,116.53,230.37,119.12Z"/><path class="cls-5" d="M219.79,118.67c-.59,2.41-1.18,4.83-1.75,7.24-2.6-.7-5.2-1.38-7.83-2.06q.78-3.63,1.55-7.26Q215.81,117.63,219.79,118.67Z"/><path class="cls-5" d="M266.28,132q-1.45,3.47-2.9,6.93c-2.53-.77-5.06-1.52-7.58-2.27q1.33-3.51,2.71-7Z"/><path class="cls-4" d="M250.73,214.52q3-9.63,6.34-19.15c-11-3.26-22.52,2.74-25.69,13.42Z"/><path class="cls-4" d="M319,69.12c-9.87-4.06-19.74-7.82-29.69-11.27-4.81,10.91,3.82,23.63,19.45,29.43C312.17,81.22,315.61,75.17,319,69.12Z"/><path class="cls-4" d="M206.15,36.85q-2,10.38-3.75,20.62c16.52,3,31.76-3,35.17-14.54Q222.08,39.38,206.15,36.85Z"/><path class="cls-4" d="M225.33,170.24a7,7,0,0,1,4.91,8.62,7.14,7.14,0,0,1-13.7-4A7,7,0,0,1,225.33,170.24Z"/><path class="cls-4" d="M256.77,71.52c5.33,1.52,8.4,5.86,7,9.58S257,86.6,252,85.18s-8.22-5.59-7.07-9.41S251.43,70,256.77,71.52Z"/><path class="cls-3" d="M303.27,43.88c-20.32,50.5-39.85,101.44-47.4,153.39-25.05-3.64-50.06-7.3-75.32-10.93,5.16-52.12,1.58-103.64,4.57-158.7C225.65,28.19,264.42,34,303.27,43.88Z"/><path class="cls-4" d="M234.92,82.47c22.39,3,36,19.81,30.79,36.12s-22.85,27.63-40.62,25.16S192.83,125.83,193,109,212.55,79.56,234.92,82.47Z"/><path class="cls-4" d="M180.55,186.34l20.09,2.9c1.5-11-6.72-21.26-18.41-22.84C181.83,173.05,181.29,179.69,180.55,186.34Z"/><path class="cls-5" d="M220.88,105.59c-2.84-.15-4.5,1.85-5,6s.59,6.33,3.13,6.66a3.61,3.61,0,0,0,3.64-1.56,39.88,39.88,0,0,0,3.56-7.69c1.51-3.89,3.53-6.65,6-8.24a13.25,13.25,0,0,1,9.15-1.65c4.16.59,7.05,2.59,8.58,5.91a16.07,16.07,0,0,1,.9,10.73c-2.19,9.26-7.35,13.92-15.55,14.11.22-2.61.43-5.21.66-7.82,4.4,0,7.09-2.4,8.14-7.34,1-4.62-.4-7.23-4.21-7.77a4.55,4.55,0,0,0-4.06,1.18c-1,1-2.4,3.56-4,7.59s-3.54,6.85-5.71,8.44a9.93,9.93,0,0,1-7.46,1.84,10.46,10.46,0,0,1-7.36-4.55c-1.9-2.64-2.68-6.23-2.27-10.79.77-9,5-13.42,12.5-13Q221.21,101.62,220.88,105.59Z"/><path class="cls-5" d="M210.33,106.66q-.35,3.72-.7,7.42c-2.66-.32-5.33-.62-8-.92.16-2.46.33-4.93.49-7.41Z"/><path class="cls-5" d="M258.25,113.18c-.63,2.43-1.26,4.85-1.87,7.28l-7.83-1.18c.55-2.44,1.1-4.88,1.67-7.32C252.89,112.36,255.57,112.76,258.25,113.18Z"/><path class="cls-4" d="M254.68,197.1q1.56-10,3.54-19.87c-11.33-1.65-21.9,5.94-23.5,17C241.37,195.16,248,196.12,254.68,197.1Z"/><path class="cls-4" d="M301.42,43.41c-10.35-2.6-20.66-4.9-31-6.9-3.2,11.5,7.17,22.85,23.47,26.34C296.4,56.36,298.93,49.88,301.42,43.41Z"/><path class="cls-4" d="M185.12,27.64q-.48,10.56-.76,20.94c16.78.6,31-7.54,32.73-19.42Q201.24,27.87,185.12,27.64Z"/><path class="cls-4" d="M223.2,156.91a6.94,6.94,0,0,1,6.09,7.83,7.14,7.14,0,0,1-14.13-2A7,7,0,0,1,223.2,156.91Z"/><path class="cls-4" d="M240.17,54.7c5.5.74,9.16,4.6,8.26,8.49s-5.82,6.4-11,5.71-8.93-4.36-8.34-8.3S234.68,54,240.17,54.7Z"/><path class="cls-6" d="M355.14,431.51c0,8.68-63,15.69-132.54,15.69s-119.16-7-119.16-15.69,49.66-15.68,119.16-15.68S355.14,422.86,355.14,431.51Z"/><path class="cls-7" d="M180.82,207.22,137.47,151.5s1-17.25,29-16.27,57.82,13,84,14.24c37.52,1.75,71.08-9.29,71.08-9.29l-45.31,67Z"/><path class="cls-7" d="M331.32,309.67c-13.93-34.25-35.35-70-55.1-102.45h-95.4c-19.53,32.42-39.23,68.66-54.66,102.45C93.25,381.78,112,405.55,150.63,422.58c28.65,12.64,127.57,12.64,156.22,0C345.48,405.55,355.22,368.42,331.32,309.67Z"/><path class="cls-8" d="M245.94,302c-.58-6.86-6.9-10.31-19-10.35s-18.25,3.19-18.27,9.66c0,4,1.93,6.85,5.84,8.64s11.78,3.87,23.6,6.17,20.5,6.13,26,11.47,8.29,12.26,8.25,20.78q0,14.89-13.41,23t-30.56,8q-41.55-.16-47.26-32l22.94-1.78q2.49,16.72,24.53,16.79,20.65.08,20.7-13.92a10.06,10.06,0,0,0-5-9.25q-5-3.06-23.49-6.73t-26.68-11.13A24,24,0,0,1,186,302.86q0-11.87,10.63-20.06t30.75-8.11q39.93.13,41.77,26.6Z"/><polygon class="cls-8" points="239.27 276.9 217.43 276.81 217.49 256.95 239.34 257.02 239.27 276.9"/><polygon class="cls-8" points="238.88 395.5 217.02 395.42 217.08 375.55 238.93 375.62 238.88 395.5"/><path class="cls-9" d="M285.05,209.29c0,1.9-1.91,3.45-4.26,3.45H174.88c-2.36,0-4.26-1.55-4.26-3.45v-2.84c0-1.9,1.9-3.44,4.26-3.44H280.79c2.35,0,4.26,1.54,4.26,3.44Z"/><path class="cls-10" d="M255.64,416.79c17.63,12.69,49.09,1.9,60.75-6.36,16.2-11.49,23.61-34.39,21.75-50.77s-4.44-27.49-11.05-42.75c-2.35-5.42,8,16.54-4.59,46.14-9.41,22.08-36.66,27.72-54.72,29.75C255.15,394.23,238.1,404.16,255.64,416.79Z"/><path class="cls-10" d="M244.92,200.07s33.36-12.13,49.83-29.08c18.61-19.14-18.3,29.08-18.3,29.08Z"/><path class="cls-11" d="M150.25,155.55s.63.49,1.66,1.4,2.45,2.24,4.09,3.89a137.24,137.24,0,0,1,11,12.85,133.88,133.88,0,0,1,9.43,14.07c1.16,2,2.06,3.74,2.66,5s.9,2,.9,2-.63-.49-1.66-1.4-2.45-2.23-4.09-3.89a126.68,126.68,0,0,1-11-12.85,137.62,137.62,0,0,1-9.43-14.07c-1.15-2-2.05-3.75-2.65-5S150.25,155.55,150.25,155.55Z"/><path class="cls-11" d="M183.59,219.71s-.53,1.62-1.57,4.41-2.57,6.74-4.54,11.42c-3.87,9.39-9.55,21.65-15.64,33.7s-12.63,23.89-17.91,32.56c-2.6,4.36-4.9,7.93-6.53,10.41s-2.62,3.88-2.62,3.88.53-1.63,1.57-4.41,2.55-6.75,4.53-11.42c3.87-9.4,9.55-21.66,15.65-33.71s12.63-23.87,17.91-32.55c2.6-4.36,4.89-7.93,6.52-10.41S183.59,219.71,183.59,219.71Z"/><path class="cls-12" d="M178.91,399.86A45.74,45.74,0,1,1,148,343,45.74,45.74,0,0,1,178.91,399.86Z"/><path class="cls-13" d="M171,397.51a37.48,37.48,0,1,1-25.3-46.57A37.47,37.47,0,0,1,171,397.51Z"/><path class="cls-14" d="M145.79,379.32c.59-2.88-1.57-5.05-6.51-6.52s-7.83-.91-8.62,1.73a3.81,3.81,0,0,0,1.34,4.23c1.37,1.21,4.34,3,8.88,5.37s7.63,5,9.24,7.82a11.64,11.64,0,0,1,.85,9.47,10.85,10.85,0,0,1-8.24,7.76,24.5,24.5,0,0,1-13.44-.42q-16.93-5.08-15.42-18.77l9.58,2.05q-1,7.13,8,9.81,8.41,2.53,10.12-3.18a4.27,4.27,0,0,0-.91-4.37q-1.66-1.86-8.77-5.59T122.32,381a10.18,10.18,0,0,1-1.09-8.53,10.55,10.55,0,0,1,6.76-6.91q5.33-2.06,13.53.41,16.28,4.88,13.83,15.89Z"/><rect class="cls-14" x="138.64" y="358.22" width="8.46" height="9.3" transform="translate(-245.75 395.39) rotate(-73.29)"/><rect class="cls-14" x="124.15" y="406.56" width="8.46" height="9.3" transform="translate(-302.38 415.9) rotate(-73.29)"/><path class="cls-15" d="M99.7,377.08c0-3.59,1.59-9.06,2.77-10.24s6.65-2.78,10.24-2.78c-3.59,0-8.88-1.4-10.24-2.77s-2.77-6.65-2.77-10.24c0,3.68-1.39,8.85-3,10.42s-6.56,2.59-10.06,2.59c3.59,0,8.89,1.43,10.23,2.78S99.7,373.49,99.7,377.08Z"/><path class="cls-15" d="M108.38,379.09a7.52,7.52,0,0,1,1-3.64,7.5,7.5,0,0,1,3.65-1,7,7,0,0,1-3.65-1,6.87,6.87,0,0,1-1-3.64,6.73,6.73,0,0,1-1,3.71,6.38,6.38,0,0,1-3.58.92,7.1,7.1,0,0,1,3.65,1A7.1,7.1,0,0,1,108.38,379.09Z"/><path class="cls-15" d="M91.43,388.89c0-1.77.78-4.47,1.37-5.06s3.28-1.37,5.06-1.37c-1.78,0-4.39-.69-5.06-1.36s-1.37-3.29-1.37-5.06c0,1.82-.69,4.37-1.46,5.14s-3.24,1.28-5,1.28c1.78,0,4.39.71,5.06,1.37S91.43,387.12,91.43,388.89Z"/></g></g></svg>